<?xml version="1.0" encoding="utf-8"?>
<!-- Generator: Adobe Illustrator 24.0.1, SVG Export Plug-In . SVG Version: 6.00 Build 0)  -->
<svg version="1.1" id="Layer_1" xmlns="http://www.w3.org/2000/svg" xmlns:xlink="http://www.w3.org/1999/xlink" x="0px" y="0px"
	 viewBox="0 0 1068.81 566.5" style="enable-background:new 0 0 1068.81 566.5;" xml:space="preserve">
<style type="text/css">
	.st0{fill-rule:evenodd;clip-rule:evenodd;fill:#009353;stroke:#009353;stroke-width:0.7119;stroke-miterlimit:10;}
	.st1{fill-rule:evenodd;clip-rule:evenodd;fill:none;stroke:#FFFFFF;stroke-width:4.1148;stroke-miterlimit:10;}
	.st2{fill-rule:evenodd;clip-rule:evenodd;fill:#FFFFFF;stroke:#FFFFFF;stroke-width:2.3358;stroke-miterlimit:10;}
	.st3{stroke:#000000;stroke-width:1.9826;stroke-miterlimit:10;}
	.st4{font-family:'Verdana-Bold';}
	.st5{font-size:215.2505px;}
</style>
<ellipse class="st0" cx="264.5" cy="283.25" rx="264.15" ry="282.89"/>
<path class="st1" d="M320.71,240.44c0,0-11.98-20.73-16.07-29.2c5.02-8.94,14.93-27.55,10.63-41.64
	c-0.8-2.8-55.69-93.26-55.69-93.26s-1.21-12.92-2.47-15.18c-1.27-2.26-3.05-2.09-3.05-2.09l-3.88-4.77c0,0-4.3-1.86-5.56-1.2
	c-0.26,0.14-5.02-3.69-7.22-2.4c-2.2,1.3-22.24,3.28-44.22,20.45s-32.46,33.31-31.75,40.41c-0.8,4.77-0.62,12.86,0.53,14.29
	c1.71,4.37,11.1,10.14,11.1,10.14s49.66,82.6,57.65,87.61c7.99,5.01,43.34,5.44,43.34,5.44s10.83,14.7,12.48,16.99
	c1.64,2.29-0.22,5.72-1.96,6.25c-1.73,0.53-40.31,8.55-40.31,8.55s-11.15-0.17-12.5-5.08c-1.35-4.92,4.37-10.67,7.52-9.81
	c1.05-0.43,15.18,2.82,18.06,3.31c1.77-1.46,1.64-9.58-0.26-10.42c-2.46-1.07-13.05-3.95-16.67-4.2c-3.61-0.25-7.82,2.42-12.52,7.42
	c-4.7,4.99-34.82,48.44-34.82,48.44l-0.84,5.06l-8.9,3.55l-0.84,5.65l-3.89,1.18l-1.66-2.38l-16.69,7.7c0,0-0.58,3.87,0.27,6.85
	c0.84,2.98,4.71,7.45,4.71,7.45l17.24-7.11l0.28-1.49c0,0,3.39-2.19,3.61-1.48c0.22,0.71,1.94,2.09,1.94,2.09l9.17-2.66l0,2.38
	l-23.92,12.45l-4.73,4.45l-7.23,4.75l-11.69,11.88l-0.01,3.57l-3.89,2.37l-1.66-1.79l-2.78,1.18l-1.11-1.19
	c0,0-12.54,6.47-14.19,8.01c-1.65,1.54,2.13,9.08,1.93,11.02c-0.21,1.93,7.49,9.84,7.49,9.84l14.19-8.6l0.28-3.27
	c0,0,2.12-2.42,4.45-1.18c2.32,1.24,25.77-4.78,34.47-9.45c8.7-4.67,17.21,7.77,17.21,7.77l32.3,121.78c0,0,2.86-0.56,3.33,1.79
	c0.47,2.35,4.71,6.26,4.71,6.26l-0.28,2.08c0,0,2.31,10.25,4.98,12.51c2.67,2.26,4.73,3.97,11.95,0.92
	c7.21-3.06,8.63-10.99,8.63-10.99l-4.7-11.02l-1.94-1.49l1.4-3.27l-3.32-7.15c0,0,5.43-3.37,5.84-2.67s4.17,0.9,4.17,0.9l3.06-0.29
	l0.83,1.49l-2.79,5.95c0,0,1.94,4.29,2.77,4.77c0.83,0.48,6.98,2.73,12.23-1.17c5.25-3.9,6.41-10.4,6.41-10.4l-3.6-5.66l-5.28,0.29
	c0,0-2.26-0.65-1.39-1.49s3.62-6.24,3.62-6.24l-1.38-2.68l0.84-3.27c0,0-23.68-41.3-26.6-46.48c-2.92-5.18,13.65-16.94,13.65-16.94
	s4.88-1.79,0.29-8.03c-4.59-6.24-26.13-3.79-25.83-6.3c0.3-2.51-10.36-22.47-13.02-25.92c-2.65-3.44-5.39-16.38-4.69-18.16
	s14.47-11.88,14.47-11.88s1.93-1.02,5.29-7.43c3.36-6.41,7.81-7.2,12.51-1.46c4.69,5.74,28.45,30.74,31.62,33.39
	c3.17,2.66,16.57,11.01,22.21,10.76c5.64-0.25,13.8-12.12,11.42-15.16c-4.24,0.44-13.6,1.47-16.4,0.27c-2.8-1.2-5.83-5.67-5.83-5.67
	l-23.28-36.35c0,0,0.82-4.22,4.45-4.75s30.93-8.88,35.59-10.64c-0.77-2.06-1.47-8.14-1.47-8.14l15.27-7.11l-2.63-7.22l7.75-3.74
	l-1.68-4.06c0,0,0.86-0.04,3.42-2c2.09-3.73,1.36-6.68,1.36-6.68l1.67-1.78l-3.05-5.66l-4.45,1.78c0,0-4.02-3.83-6.94-2.1
	c-0.72,0.59-7.51,3.85-7.51,3.85l-4.16-2.69L320.71,240.44"/>
<path class="st2" d="M118.6,253.32"/>
<text transform="matrix(0.474 2.725966e-03 -5.014095e-03 1 249.9388 382.0847)" class="st3 st4 st5">D&amp;G Polishing</text>
</svg>
